# xmcd CD database file
#
# Track frame offsets:
#	150
#	12175
#	24839
#	41133
#	56769
#	68686
#	83708
#	100775
#	118429
#	129924
#	142620
#	161063
#	174403
#	186536
#	204592
#	216615
#	233198
#	247127
#	261939
#	280846
#	289519
#	299463
#	320074
#	333426
#	342996
#
# Disc length: 4724 seconds
#
# Revision: 0
# Processed by: cddbd v1.5.1PL0 Copyright (c) Steve Scherf et al.
# Submitted via: CDex 1.51
#
DISCID=85127219
DTITLE=Varios - Romantic Love
DYEAR=1900
DGENRE=Rhythmic Soul
TTITLE0=Endless love 
TTITLE1=Blue velvet
TTITLE2=Silence is golden
TTITLE3=Love of my life
TTITLE4=Teen angel
TTITLE5=Hey there lonely girl
TTITLE6=Love me please love me
TTITLE7=Reflections of my life
TTITLE8=Don`t  let it die
TTITLE9=Aline
TTITLE10=Rock and roll lullaby
TTITLE11=Rain and Tears
TTITLE12=Love this is my song
TTITLE13=La boheme
TTITLE14=All by myself
TTITLE15=Good morning starshine
TTITLE16=Lady Jane
TTITLE17=Merci cherie
TTITLE18=Natalie
TTITLE19=Cuando calienta el sol
TTITLE20=I``m  sorry
TTITLE21=Marie Jolie
TTITLE22=Let it be
TTITLE23=With a girl like you
TTITLE24=Rhythm of the rain
EXTD=
EXTT0=
EXTT1=
EXTT2=
EXTT3=
EXTT4=
EXTT5=
EXTT6=
EXTT7=
EXTT8=
EXTT9=
EXTT10=
EXTT11=
EXTT12=
EXTT13=
EXTT14=
EXTT15=
EXTT16=
EXTT17=
EXTT18=
EXTT19=
EXTT20=
EXTT21=
EXTT22=
EXTT23=
EXTT24=
PLAYORDER=
